# File generated by ImageToStl.com - Free Image and 3D model conversion tools

mtllib bed.mtl

o obj1
v 0.46584969 -0.07170919 0.66689384
v 0.35888829 0.05493742 0.63939875
v 0.23612853 -0.13412444 0.565826
v 0.84618746 -0.08434631 0.72455448
v 0.94648158 0.11498421 0.64721525
v 0.76579177 -0.05618401 0.52594417
v 0.71672212 -0.13957836 -0.61992246
v 0.79565775 -0.04094563 -0.53925437
v 0.01067682 -0.04094563 -0.50728869
v 0.03354752 -0.10814902 -0.59890014
v 0.81101554 0.08970328 0.56536704
v 0.75074863 0.19715293 0.57549185
v 0.62530112 -0.09724277 0.56794012
v -0.08468911 -0.20813243 0.58290887
v 0.07814041 0.32070585 0.5179342
v -0.19972099 0.33257827 0.56594473
v -0.23560337 -0.0618836 0.64694393
v 0.91051965 0.30365816 0.49623975
v 1.01109099 -0.08127023 0.5045045
v 1.02959823 -0.16768457 0.33347934
v 1.01318096 0.25151645 0.43532485
v 1.02884888 -0.10846891 -0.30848938
v 1.03375375 0.22936821 -0.55829895
v 0.86940562 -0.04094563 0.47293341
v 0.76579177 -0.05618401 0.52594417
v 0.81083476 -0.04094563 0.39997128
v 1.00295877 -0.04094563 -0.5398348
v 1.13995933 -0.12186834 -0.56909245
v 1.07534456 0.08764593 -0.62286109
v 0.93236726 0.30462413 -0.51390177
v 0.93615495 -0.15499829 -0.76457679
v 0.96321451 -0.30845846 0.68891793
v 1.0434184 -0.15009572 0.56457663
v -0.30259392 -0.13298549 0.80010968
v -0.25815893 0.08517717 0.68981802
v -0.43593863 -0.14832939 0.67751735
v -0.5547526 -0.16975595 0.56130385
v -0.57569063 -0.13418318 0.66518486
v -0.64351345 0.28492497 0.51539797
v 0.24026173 0.30847059 -0.52713513
v 0.71672212 -0.13957836 -0.61992246
v 0.03354752 -0.10814902 -0.59890014
v 0.7644363 -0.07487734 -0.7588532
v 0.27388342 0.25858131 0.55965322
v 0.62530112 -0.09724277 0.56794012
v 0.56077635 -0.04094563 0.46939006
v 0.23542222 -0.04094563 0.4571934
v 0.01067682 -0.04094563 -0.50728869
v 0.90428161 -0.04094563 -0.30129227
v 0.56077635 -0.04094563 0.46939006
v 0.24150207 0.35302962 0.21458432
v 0.23612853 -0.13412444 0.565826
v -0.08468911 -0.20813243 0.58290887
v -0.09950031 -0.04094563 0.51743329
v 0.23542222 -0.04094563 0.4571934
v -0.55566908 0.42328773 -0.23086625
v -0.65612222 0.35442387 -0.50624776
v -0.05835439 0.0415877 -0.66890025
v 0.93615495 -0.15499829 -0.76457679
v 1.00295877 -0.04094563 -0.5398348
v 0.7644363 -0.07487734 -0.7588532
v -0.62415815 0.07326089 -0.70526034
v -0.65612222 0.35442387 -0.50624776
v -0.62415815 0.07326089 -0.70526034
v -0.56440843 -0.04094563 -0.63719505
v -0.47620181 -0.17332925 0.56761116
v -0.56440843 -0.04094563 -0.63719505
v 0.46584969 -0.07170919 0.66689384
v 1.02884888 -0.10846891 -0.30848938
v 0.90428161 -0.04094563 -0.30129227
v -0.52629168 -0.03597812 -0.49837059
v -0.56440843 -0.04094563 -0.63719505
v 0.90428161 -0.04094563 -0.30129227
v 1.02959823 -0.16768457 0.33347934
v -0.57569063 -0.13418318 0.66518486
v -0.64351345 0.28492497 0.51539797
v 1.01109099 -0.08127023 0.5045045
v 1.07412266 -0.27520846 -0.63150114
v 1.13995933 -0.12186834 -0.56909245
v -0.44778732 -0.03597812 0.49837059
v -0.47620181 -0.17332925 0.56761116
v -0.5547526 -0.16975595 0.56130385
v -0.96324331 0.21802188 0.49717084
v -0.44119827 0.21802188 0.36103445
v -1.04657305 0.21802188 0.41320512
v -0.96731306 -0.03597812 -0.49837059
v -0.52629168 -0.03597812 -0.49837059
v -1.05511988 -0.03597812 -0.4105638
v -0.60235322 0.21802188 -0.49717084
v -0.44119827 0.21802188 0.36103445
v -0.55299807 0.21802188 0.49717084
v -0.60235322 0.21802188 -0.49717084
v -0.52629168 -0.03597812 -0.49837059
v -0.96731306 -0.03597812 -0.49837059
v -0.96324331 0.21802188 -0.49717084
v -1.02940185 -0.03597812 -0.47265255
v -1.02224071 0.21802188 -0.47265282
v -1.02224071 0.21802188 0.47265282
v -1.02940185 -0.03597812 0.47265255
v -0.96731306 -0.03597812 0.49837059
v -0.96324331 0.21802188 0.49717084
v -1.04657305 0.21802188 0.41320512
v -1.05511988 -0.03597812 0.4105638
v -1.05511988 -0.03597812 -0.4105638
v -1.04657305 0.21802188 -0.41320512
v -0.56879307 0.44236623 0.27190995
v -0.49311785 0.21802188 -0.16437624
v -1.04657305 0.21802188 -0.41320512
v 0.84618746 -0.08434631 0.72455448
v 1.02884888 -0.10846891 -0.30848938
v 1.0434184 -0.15009572 0.56457663
v -0.44778732 -0.03597812 0.49837059
v -1.05511988 -0.03597812 0.4105638
v 0.79565775 -0.04094563 -0.53925437
v 0.86940562 -0.04094563 0.47293341
v 0.81083476 -0.04094563 0.39997128
v -0.49311785 0.21802188 -0.16437624
v -0.56879307 0.44236623 0.27190995
v -0.55566908 0.42328773 -0.23086625
v -0.09950031 -0.04094563 0.51743329
v -0.60235322 0.21802188 -0.49717084
v -0.96324331 0.21802188 -0.49717084
v -1.02224071 0.21802188 -0.47265282
v -0.5547526 -0.16975595 0.56130385
v -1.02224071 0.21802188 0.47265282
v -0.55299807 0.21802188 0.49717084
v -0.96731306 -0.03597812 0.49837059
v -1.02940185 -0.03597812 0.47265255
v -0.55299807 0.21802188 0.49717084
v -0.44778732 -0.03597812 0.49837059
v -1.02940185 -0.03597812 -0.47265255
v 1.07412266 -0.27520846 -0.63150114
v -0.52629168 -0.03597812 -0.49837059
v -0.44778732 -0.03597812 0.49837059
v 0.96321451 -0.30845846 0.68891793
v 1.0352286 0.39065687 0.31081587
v 1.0352286 0.39065687 -0.31081587
v 1.00892078 0.36461829 -0.31021106
v 1.00892078 0.36461829 0.31021106
v 1.0352286 0.33808756 -0.30946696
v 1.00892078 0.36461829 -0.31021106
v 1.00897657 0.33288127 -0.45769185
v 1.0352286 0.31061715 -0.44209287
v 1.0352286 0.3536232 -0.4724181
v 1.00897657 0.33288127 -0.45769185
v 1.0352286 0.3536232 0.4724181
v 1.06148063 0.3328813 0.45769188
v 1.06153642 0.36461829 0.31021106
v 1.00897657 0.33288127 0.45769185
v 1.0352286 0.31061715 0.44209287
v 1.0352286 0.33808756 0.30946696
v 1.0352286 0.2580432 0.47875968
v 1.00894403 0.26710784 0.50410914
v 1.00897657 0.33288127 0.45769185
v 1.0352286 0.15713622 0.49100918
v 1.00891673 0.15762718 0.51746529
v 1.00894403 0.26710784 0.50410914
v 1.0352286 0.27568808 0.52833587
v 1.00891673 0.15762718 0.51746529
v 1.0352286 0.15807287 0.54361409
v 1.06151306 0.26710784 0.50410914
v 1.06154048 0.15762718 0.51746529
v 1.06070947 -0.30742045 0.51731235
v 1.0352286 -0.30742075 0.49183071
v 1.00974774 -0.30742045 -0.51731235
v 1.00891673 0.15762718 -0.51746529
v 1.0352286 0.15807287 -0.54361409
v 1.0352286 -0.30741997 -0.54279268
v 1.06154048 0.15762718 -0.51746529
v 1.06070947 -0.30742045 -0.51731235
v 1.0352286 -0.30742075 0.49183071
v 1.0352286 -0.30741997 0.54279268
v 1.00974774 -0.30742045 0.51731235
v 1.00974774 -0.30742045 0.51731235
v 1.06153642 0.36461829 -0.31021106
v 1.00892078 0.36461829 0.31021106
v 1.06148063 0.3328813 -0.45769188
v 1.00894403 0.26710784 -0.50410914
v 1.0352286 0.2580432 -0.47875968
v 1.00891673 0.15762718 -0.51746529
v 1.0352286 0.15713622 -0.49100918
v 1.0352286 0.27568808 -0.52833587
v 1.00894403 0.26710784 -0.50410914
v 1.06151306 0.26710784 -0.50410914
v 1.00974774 -0.30742045 -0.51731235
v 1.0352286 -0.30742075 -0.49183071
v 1.0352286 -0.30742075 -0.49183071
v 1.00974774 -0.30742045 -0.51731235
v 1.01571464 -0.21035118 -0.51947194
v 1.01571464 -0.21035118 0.51947194
v 1.03522848 -0.19083722 0.51947194
v 1.03522848 -0.19083722 -0.51947194
v 1.05474269 -0.21035118 -0.51947194
v 1.05474269 -0.21035118 0.51947194
v 1.03522848 -0.22986518 0.51947194
v 1.03522848 -0.22986518 -0.51947194
v 1.03522848 -0.22986518 -0.51947194
v 1.03522848 -0.22986518 0.51947194
v 1.00974774 -0.30742045 0.51731235
v 1.05013775 -0.20814301 7E-08
v 1.02777397 -0.20814301 -0.01291166
v 1.02777397 0.35696124 -0.01291166
v 1.05013775 0.35696124 7E-08
v 1.02777397 -0.20814301 0.01291177
v 1.02777397 0.35696124 0.01291177
v 1.02777397 -0.20814301 0.01291177
v 1.02777397 0.35696124 0.01291177
v 1.05013775 -0.20814301 0.16000007
v 1.02777397 -0.20814301 0.14708833
v 1.02777397 0.35696124 0.14708833
v 1.05013775 0.35696124 0.16000007
v 1.02777397 -0.20814301 0.17291176
v 1.02777397 0.35696124 0.17291176
v 1.02777397 -0.20814301 0.17291176
v 1.02777397 0.35696124 0.17291176
v 1.05013775 -0.20814301 0.32000005
v 1.02777397 -0.20814301 0.30708832
v 1.02777397 0.35696124 0.30708832
v 1.05013775 0.35696124 0.32000005
v 1.02777397 -0.20814301 0.33291176
v 1.02777397 0.35696124 0.33291176
v 1.02777397 -0.20814301 0.33291176
v 1.02777397 0.35696124 0.33291176
v 1.05013775 -0.20814301 -0.31999993
v 1.02777397 -0.20814301 -0.33291167
v 1.02777397 0.35696124 -0.33291167
v 1.05013775 0.35696124 -0.31999993
v 1.02777397 -0.20814301 -0.30708823
v 1.02777397 0.35696124 -0.30708823
v 1.02777397 -0.20814301 -0.30708823
v 1.02777397 0.35696124 -0.30708823
v 1.05013775 -0.20814301 -0.15999994
v 1.02777397 -0.20814301 -0.17291167
v 1.02777397 0.35696124 -0.17291167
v 1.05013775 0.35696124 -0.15999994
v 1.02777397 -0.20814301 -0.14708823
v 1.02777397 0.35696124 -0.14708823
v 1.02777397 -0.20814301 -0.14708823
v 1.02777397 0.35696124 -0.14708823
v -1.07347883 0.68984567 0.31081587
v -1.07347883 0.68984567 -0.31081587
v -1.09978665 0.66380702 -0.31021106
v -1.09978665 0.66380702 0.31021106
v -1.07347883 0.63727628 -0.30946696
v -1.09978665 0.66380702 -0.31021106
v -1.09973086 0.63207005 -0.45769185
v -1.07347883 0.60980593 -0.44209287
v -1.07347883 0.65281199 -0.4724181
v -1.09973086 0.63207005 -0.45769185
v -1.07347883 0.65281199 0.4724181
v -1.04722679 0.63207005 0.45769188
v -1.047171 0.66380702 0.31021106
v -1.09973086 0.63207005 0.45769185
v -1.07347883 0.60980593 0.44209287
v -1.07347883 0.63727628 0.30946696
v -1.07347883 0.55723195 0.47875968
v -1.0997634 0.56629656 0.50410914
v -1.09973086 0.63207005 0.45769185
v -1.07347883 0.45632498 0.49100918
v -1.0997907 0.45681594 0.51746529
v -1.0997634 0.56629656 0.50410914
v -1.07347883 0.57487683 0.52833587
v -1.0997907 0.45681594 0.51746529
v -1.07347883 0.45726161 0.54361409
v -1.04719437 0.56629656 0.50410914
v -1.04716695 0.45681594 0.51746529
v -1.04799796 -0.30742045 0.51731235
v -1.07347883 -0.30742075 0.49183071
v -1.09895969 -0.30742045 -0.51731235
v -1.0997907 0.45681594 -0.51746529
v -1.07347883 0.45726161 -0.54361409
v -1.07347883 -0.30741997 -0.54279268
v -1.04716695 0.45681594 -0.51746529
v -1.04799796 -0.30742045 -0.51731235
v -1.07347883 -0.30742075 0.49183071
v -1.07347883 -0.30741997 0.54279268
v -1.09895969 -0.30742045 0.51731235
v -1.09895969 -0.30742045 0.51731235
v -1.047171 0.66380702 -0.31021106
v -1.09978665 0.66380702 0.31021106
v -1.04722679 0.63207005 -0.45769188
v -1.0997634 0.56629656 -0.50410914
v -1.07347883 0.55723195 -0.47875968
v -1.0997907 0.45681594 -0.51746529
v -1.07347883 0.45632498 -0.49100918
v -1.07347883 0.57487683 -0.52833587
v -1.0997634 0.56629656 -0.50410914
v -1.04719437 0.56629656 -0.50410914
v -1.09895969 -0.30742045 -0.51731235
v -1.07347883 -0.30742075 -0.49183071
v -1.07347883 -0.30742075 -0.49183071
v -1.09895969 -0.30742045 -0.51731235
v -1.09299279 0.08883756 -0.51947194
v -1.09299279 0.08883756 0.51947194
v -1.07347894 0.10835153 0.51947194
v -1.07347894 0.10835153 -0.51947194
v -1.05396474 0.08883756 -0.51947194
v -1.05396474 0.08883756 0.51947194
v -1.07347894 0.06932358 0.51947194
v -1.07347894 0.06932358 -0.51947194
v -1.07347894 0.06932358 -0.51947194
v -1.07347894 0.06932358 0.51947194
v -1.09895969 -0.30742045 0.51731235
v -1.05856968 0.09104574 7E-08
v -1.08093346 0.09104574 -0.01291166
v -1.08093346 0.65614997 -0.01291166
v -1.05856968 0.65614997 7E-08
v -1.08093346 0.09104574 0.01291177
v -1.08093346 0.65614997 0.01291177
v -1.08093346 0.09104574 0.01291177
v -1.08093346 0.65614997 0.01291177
v -1.05856968 0.09104574 0.16000007
v -1.08093346 0.09104574 0.14708833
v -1.08093346 0.65614997 0.14708833
v -1.05856968 0.65614997 0.16000007
v -1.08093346 0.09104574 0.17291176
v -1.08093346 0.65614997 0.17291176
v -1.08093346 0.09104574 0.17291176
v -1.08093346 0.65614997 0.17291176
v -1.05856968 0.09104574 0.32000005
v -1.08093346 0.09104574 0.30708832
v -1.08093346 0.65614997 0.30708832
v -1.05856968 0.65614997 0.32000005
v -1.08093346 0.09104574 0.33291176
v -1.08093346 0.65614997 0.33291176
v -1.08093346 0.09104574 0.33291176
v -1.08093346 0.65614997 0.33291176
v -1.05856968 0.09104574 -0.31999993
v -1.08093346 0.09104574 -0.33291167
v -1.08093346 0.65614997 -0.33291167
v -1.05856968 0.65614997 -0.31999993
v -1.08093346 0.09104574 -0.30708823
v -1.08093346 0.65614997 -0.30708823
v -1.08093346 0.09104574 -0.30708823
v -1.08093346 0.65614997 -0.30708823
v -1.05856968 0.09104574 -0.15999994
v -1.08093346 0.09104574 -0.17291167
v -1.08093346 0.65614997 -0.17291167
v -1.05856968 0.65614997 -0.15999994
v -1.08093346 0.09104574 -0.14708823
v -1.08093346 0.65614997 -0.14708823
v -1.08093346 0.09104574 -0.14708823
v -1.08093346 0.65614997 -0.14708823
v -0.99166215 0.32848477 -0.30262175
v -0.94771827 0.32257545 -0.1395582
v -0.90206737 0.41036926 -0.14808452
v -0.91884661 0.33716851 -0.28666398
v -0.55577702 0.24087523 0.14730033
v -0.51389683 0.32142788 0.13935517
v -0.4702282 0.32717335 0.30249131
v -0.54286862 0.33640665 0.28621757
v -0.90328456 0.32530025 0.19408506
v -0.85510249 0.41046976 0.1888999
v -0.6050554 0.24322481 -0.19051784
v -0.5580811 0.32417768 -0.19452852
v -0.55901647 0.40948813 0.14760093
v -0.54286862 0.33640665 0.28621757
v -0.4702282 0.32717335 0.30249131
v -0.51389683 0.32142788 0.13935517
v -0.63012613 0.31554019 -0.3278805
v -0.56487335 0.32474595 -0.36377048
v -0.85770512 0.24502358 0.19069701
v -0.9061665 0.24240549 -0.14733419
v -0.99166215 0.32848477 -0.30262175
v -0.91884661 0.33716851 -0.28666398
v -0.94771827 0.32257545 -0.1395582
v -0.83179481 0.31695282 0.32760239
v -0.83179481 0.31695282 0.32760239
v -0.89704991 0.32660651 0.36333683
v -0.90328456 0.32530025 0.19408506
v -0.60600085 0.40914093 -0.18945828
v -0.89704991 0.32660651 0.36333683
v -0.63012613 0.31554019 -0.3278805
v -0.5580811 0.32417768 -0.19452852
v -0.56487335 0.32474595 -0.36377048
v -1.07085062 -0.06270508 -0.53039253
v -1.07085062 0.01206914 -0.53039253
v 1.0366547 0.01206914 -0.53039253
v 1.0366547 -0.06270508 -0.53039253
v 1.0366547 0.01206914 0.53039253
v 1.0366547 0.01206914 0.50394481
v -1.07085062 0.01206914 0.50394481
v -1.07085062 0.01206914 0.53039253
v 1.0366547 -0.06270508 -0.50394481
v 1.0366547 0.01206914 -0.50394481
v -1.07085062 0.01206914 -0.50394481
v -1.07085062 -0.06270508 -0.50394481
v 1.0366547 -0.06270508 -0.50394481
v -1.07085062 -0.06270508 -0.50394481
v -1.07085062 -0.06270508 0.53039253
v 1.0366547 -0.06270508 0.53039253
v 1.0366547 -0.06270508 0.50394481
v -1.07085062 -0.06270508 0.50394481
v -1.07085062 -0.06270508 0.50394481
v 1.0366547 -0.06270508 0.50394481
vn 0.0884 0.049 0.99488
vn -0.19241 0.21691 0.95704
vn -0.0991 0.0767 0.99212
vn 0.4319 0.251 0.86629
vn 0.52149 0.34209 0.78168
vn -0.3672 0.1316 0.92079
vn 0.0883 -0.74898 0.65668
vn -0.0404 -0.97333 0.22581
vn -0.0095 -0.99693 0.0777
vn -0.0195 -0.82617 0.56308
vn -0.1737 0.084 0.98121
vn 0.1255 0.35441 0.92663
vn 0.44069 -0.22629 0.86867
vn 0.1076 0.0457 0.99314
vn 0.1124 0.78509 0.60909
vn 0.0908 0.79829 0.59539
vn 0.3294 -0.0697 0.94161
vn 0.1217 0.99174 0.0405
vn 0.99425 -0.0277 -0.1034
vn 0.99927 0.0361 0.0126
vn 0.85126 0.52167 0.0567
vn 0.99996 0.0015 0.0086
vn 0.76947 0.52968 -0.35688
vn -0.49249 -0.86299 -0.1127
vn 0.031 -0.96631 -0.2555
vn 0.0035 -0.99956 -0.0295
vn 0.98285 -0.009 0.18419
vn 0.75312 0.0509 -0.65591
vn 0.77028 0.24589 -0.58839
vn 0.1214 0.9366 -0.3287
vn 0.3801 0.3056 -0.873
vn 0.64668 0.1 0.75618
vn 0.72709 0.1153 0.67679
vn -0.25699 -0.17589 0.95027
vn -0.0689 0.4731 0.87831
vn -0.23219 0.0523 0.97126
vn -0.77399 -0.55599 -0.303
vn -0.43999 0.0959 0.89287
vn -0.32439 0.56589 0.75798
vn 0.0631 0.9095 -0.4109
vn -0.0715 0.23511 -0.96934
vn 0.0529 0.1158 -0.99186
vn -0.28951 0.58601 -0.75682
vn -0.0427 0.26851 0.96233
vn -0.0952 -0.94717 -0.30629
vn -0.0029 -0.99987 -0.0158
vn 0.004 -0.99834 -0.0575
vn -0.0601 -0.99812 -0.012
vn 0.0721 0.99739 -0.0045
vn 0.0904 -0.60623 -0.79014
vn -0.005 -0.47719 -0.87879
vn -0.0085 -0.9878 -0.1555
vn -0.1068 0.99282 -0.0539
vn -0.2984 0.7999 -0.5207
vn 0.0897 0.24111 -0.96634
vn -0.3899 -0.8279 0.4032
vn -0.30059 -0.92196 0.24419
vn -0.0858 -0.94122 0.32671
vn -0.16041 0.37011 -0.91503
vn -0.29981 -0.92744 -0.22351
vn 0.0169 -0.87848 0.47749
vn 0.0267 -0.96933 -0.24431
vn -0.3606 -0.92909 -0.0822
vn -0.0274 -0.99921 0.0289
vn -0.61392 -0.78933 -0.0074
vn -0.27109 -0.96247 -0.0124
vn -0.66102 -0.43891 0.60862
vn -0.0199 -0.36959 0.92898
vn -0.0041 -0.99782 -0.0659
vn 0.0237 -0.4106 -0.91151
vn 0.0504 -0.45789 -0.88758
vn 0 1 0
vn 0 -1 0
vn -0.90488 -0.2569 0.33939
vn -0.88687 -0.45198 -0.0958
vn -0.40489 -0.30109 -0.86337
vn 0 0.0047 -0.99999
vn -0.0553 0.0056 -0.99845
vn -0.0535 0.0056 -0.99855
vn -0.71179 0.0203 -0.70209
vn -0.70486 0.0201 -0.70906
vn -0.70486 0.0201 0.70906
vn -0.71179 0.0203 0.70209
vn -0.0486 0.0055 0.9988
vn -0.047 0.0055 0.99888
vn -0.9991 0.0313 0.0288
vn -0.99906 0.0333 0.0278
vn -0.99912 0.0313 -0.0278
vn -0.99903 0.0333 -0.0288
vn -0.1714 0.98103 0.0906
vn -0.83387 -0.52588 -0.16769
vn 0.0174 -0.62646 -0.77926
vn -0.92662 -0.35871 0.1127
vn 0 0.0047 0.99999
vn 0.6909 0.0149 -0.7228
vn -0.35411 -0.15101 -0.92293
vn -0.65908 -0.59868 -0.45519
vn 0 0.99914 0.0414
vn 0 0.99914 -0.0414
vn -0.99933 0.0359 -0.0067
vn -0.99933 0.0359 0.0067
vn 0 -0.99916 0.0409
vn -0.9738 0.2003 -0.1077
vn 0 -0.90004 0.43582
vn 0 0.88599 -0.4637
vn 0 0.88599 0.4637
vn 0.9738 0.2003 0.1077
vn 0.99933 0.0359 0.0067
vn -0.9738 0.2003 0.1077
vn 0 -0.90004 -0.43582
vn 0 -0.99916 -0.0409
vn 0 -0.3156 -0.94889
vn -0.98556 0.0668 0.15559
vn 0 -0.0247 -0.99969
vn -0.99973 0.001 0.0234
vn 0 0.32901 0.94433
vn 0 0.0227 0.99974
vn 0.98556 0.0668 0.15559
vn 0.99973 0.001 0.0234
vn 0.99846 -0.0555 0.0004
vn 0 -0.0554 -0.99846
vn -0.99846 -0.0555 -0.0016
vn -0.99973 0.001 -0.0234
vn 0 0.0227 -0.99974
vn 0 -0.0557 -0.99845
vn 0.99973 0.001 -0.0234
vn 0.99846 -0.0555 -0.0003
vn 0 -0.0557 0.99845
vn -0.99846 -0.0555 0.0003
vn 0.99933 0.0359 -0.0067
vn 0.9738 0.2003 -0.1077
vn -0.98556 0.0668 -0.15559
vn 0 -0.31569 0.94886
vn 0 -0.0247 0.99969
vn 0 0.32901 -0.94433
vn 0.98556 0.0665 -0.15569
vn 0 -0.0554 0.99846
vn -1 0 0
vn 1 0 0
vn -0.50001 0 -0.86602
vn -0.50001 0 0.86602
vn 0 -0.0163 -0.99987
vn -0.99984 0.0007 0.0181
vn 0 0.0149 0.99989
vn 0.99984 0.0007 0.0181
vn 0.99943 -0.0338 0.0002
vn 0 -0.0338 -0.99943
vn -0.99943 -0.0338 -0.0015
vn -0.99984 0.0007 -0.0181
vn 0 0.0149 -0.99989
vn 0 -0.0339 -0.99943
vn 0.99984 0.0007 -0.0181
vn 0.99943 -0.0338 -0.0002
vn 0 -0.0339 0.99943
vn -0.99943 -0.0338 0.0002
vn 0 -0.0163 0.99987
vn 0 -0.0338 0.99943
vn -0.98145 0.023 -0.19031
vn -0.99692 0.0142 0.0771
vn -0.2084 0.97021 -0.1235
vn -0.37702 0.042 -0.92525
vn 0.2011 -0.97141 0.1262
vn 0.99699 0.0067 -0.0773
vn 0.98128 0.0185 0.1917
vn 0.37629 0.0414 0.92558
vn -0.97959 0.0203 0.2
vn -0.17431 0.96863 0.17711
vn 0.1519 -0.97301 -0.1737
vn 0.97955 0.0129 -0.20081
vn 0.21479 0.96906 0.1216
vn 0.10489 -0.0552 -0.99295
vn 0.87958 0.008 -0.47569
vn -0.1595 -0.97138 0.176
vn -0.2085 -0.97008 -0.1244
vn -0.1054 -0.0521 0.99306
vn -0.88091 0.019 0.4729
vn 0.18051 0.96715 -0.17901
vn 0 -0.33348 -0.94276
vn 0 0.33348 -0.94276
vn 0 0.33348 0.94276
vn 0 -0.33348 0.94276
vt 0.57046 0.44717
vt 0.5453 0.41953
vt 0.58956 0.39422
vt 0.54951 0.57655
vt 0.50656 0.55414
vt 0.55478 0.52092
vt 0.71135 0.1246
vt 0.73518 0.10218
vt 0.77368 0.26929
vt 0.74838 0.26929
vt 0.52029 0.52016
vt 0.5016 0.49755
vt 0.56929 0.48979
vt 0.62263 0.33039
vt 0.4886 0.3451
vt 0.49613 0.28412
vt 0.59697 0.29034
vt 0.46926 0.52417
vt 0.48345 0.6104
vt 0.44256 0.63631
vt 0.45566 0.54783
vt 0.29605 0.62513
vt 0.24665 0.54922
vt 0.63135 0.82319
vt 0.60935 0.83633
vt 0.61676 0.80796
vt 0.24074 0.60507
vt 0.20098 0.61302
vt 0.22312 0.57096
vt 0.25655 0.52239
vt 0.15587 0.56597
vt 0.54833 0.63458
vt 0.50283 0.61877
vt 0.58673 0.26243
vt 0.54942 0.26659
vt 0.6059 0.22813
vt 0.34314 0.74927
vt 0.36083 0.76609
vt 0.29422 0.83834
vt 0.2539 0.37378
vt 0.1567 0.48457
vt 0.15693 0.33444
vt 0.15506 0.52172
vt 0.50048 0.39046
vt 0.5804 0.85189
vt 0.56316 0.82895
vt 0.74023 0.80382
vt 0.95184 0.75965
vt 0.90236 0.95361
vt 0.73592 0.87475
vt 0.41787 0.3766
vt 0.49107 0.86445
vt 0.42133 0.8812
vt 0.41767 0.84202
vt 0.49175 0.83319
vt 0.32388 0.20025
vt 0.26251 0.17763
vt 0.18895 0.30867
vt 0.68928 0.0589
vt 0.74619 0.05829
vt 0.68624 0.10017
vt 0.18694 0.18568
vt 0.05651 0.83896
vt 0.01393 0.77659
vt 0.03066 0.74953
vt 0.63131 0.22483
vt 0.15894 0.20129
vt 0.54635 0.8743
vt 0.79897 0.06197
vt 0.79136 0.09199
vt 0.79897 0.38376
vt 0.7714 0.39887
vt 0.57253 0.66435
vt 0.66096 0.77797
vt 0.60296 0.19829
vt 0.49736 0.18339
vt 0.66418 0.81955
vt 0.71008 0.0141
vt 0.74794 0.02302
vt 0.34147 0.84047
vt 0.33588 0.87413
vt 0.31868 0.87315
vt 0.91702 0.3056
vt 0.80306 0.27588
vt 0.9352 0.28727
vt 0.95484 0.54618
vt 0.95261 0.64242
vt 0.93612 0.52658
vt 0.06034 0.80712
vt 0.25186 0.79955
vt 0.28732 0.81443
vt 0.5266 0.66301
vt 0.54492 0.71791
vt 0.4487 0.72091
vt 0.44786 0.66546
vt 0.43404 0.72132
vt 0.43392 0.66585
vt 0.22549 0.66602
vt 0.22547 0.72149
vt 0.2108 0.7211
vt 0.21155 0.66565
vt 0.23951 0.66618
vt 0.24013 0.72165
vt 0.41937 0.72151
vt 0.4199 0.66603
vt 0.43314 0.19881
vt 0.8144 0.16119
vt 0.9352 0.10688
vt 0.62808 0.87927
vt 0.60044 0.6509
vt 0.67942 0.83416
vt 0.7347 0.65451
vt 0.75694 0.52242
vt 0.95484 0.93111
vt 0.73359 0.94209
vt 0.7498 0.92967
vt 0.13665 0.80239
vt 0.23113 0.85543
vt 0.12146 0.84902
vt 0.72878 0.73042
vt 0.83824 0.08855
vt 0.91702 0.08855
vt 0.92989 0.0939
vt 0.63037 0.20593
vt 0.92989 0.30025
vt 0.82747 0.3056
vt 0.73733 0.54114
vt 0.74326 0.52772
vt 0.12204 0.66301
vt 0.09745 0.71775
vt 0.94954 0.5325
vt 0.16159 0.6165
vt 0.0621 0.74927
vt 0.30402 0.75679
vt 0.68361 0.8812
vt 0.459 0.12356
vt 0.32398 0.12021
vt 0.32404 0.11217
vt 0.45934 0.11552
vt 0.32331 0.13638
vt 0.3232 0.14447
vt 0.29134 0.14482
vt 0.29173 0.13633
vt 0.29056 0.12002
vt 0.29085 0.11199
vt 0.49239 0.12499
vt 0.49147 0.13289
vt 0.45896 0.13161
vt 0.49249 0.11696
vt 0.49042 0.14123
vt 0.45887 0.13972
vt 0.50727 0.14278
vt 0.50601 0.15069
vt 0.4904 0.14973
vt 0.53057 0.14722
vt 0.529 0.15516
vt 0.51147 0.11916
vt 0.5103 0.12695
vt 0.53568 0.12351
vt 0.53411 0.13142
vt 0.50877 0.13479
vt 0.53233 0.13931
vt 0.63162 0.1602
vt 0.63001 0.16789
vt 0.14726 0.13285
vt 0.24739 0.11642
vt 0.24858 0.1244
vt 0.14852 0.14061
vt 0.24997 0.13236
vt 0.14977 0.14838
vt 0.63932 0.16182
vt 0.63325 0.15251
vt 0.64094 0.15413
vt 0.62842 0.17559
vt 0.32362 0.12827
vt 0.45858 0.14782
vt 0.29109 0.12795
vt 0.2757 0.14502
vt 0.27483 0.13706
vt 0.25252 0.14835
vt 0.25133 0.14035
vt 0.27258 0.1211
vt 0.27178 0.11326
vt 0.27371 0.129
vt 0.14076 0.14186
vt 0.142 0.14962
vt 0.151 0.15613
vt 0.15221 0.1639
vt 0.10321 0.08986
vt 0.10321 0.31664
vt 0.09718 0.31664
vt 0.09718 0.08986
vt 0.09116 0.08986
vt 0.09116 0.31664
vt 0.08513 0.31664
vt 0.08513 0.08986
vt 0.10923 0.08986
vt 0.10923 0.31664
vt 0.63489 0.14482
vt 0.0902 0.76511
vt 0.0902 0.75947
vt 0.21355 0.75947
vt 0.21355 0.76511
vt 0.0902 0.77075
vt 0.21355 0.77075
vt 0.0902 0.75384
vt 0.21355 0.75384
vt 0.45103 0.91729
vt 0.45103 0.91166
vt 0.57438 0.91166
vt 0.57438 0.91729
vt 0.45103 0.92293
vt 0.57438 0.92293
vt 0.45103 0.90602
vt 0.57438 0.90602
vt 0.60483 0.49521
vt 0.61047 0.49521
vt 0.61047 0.61856
vt 0.60483 0.61856
vt 0.5992 0.49521
vt 0.5992 0.61856
vt 0.61611 0.49521
vt 0.61611 0.61856
vt 0.02064 0.57376
vt 0.02627 0.57376
vt 0.02627 0.69711
vt 0.02064 0.69711
vt 0.015 0.57376
vt 0.015 0.69711
vt 0.03191 0.57376
vt 0.03191 0.69711
vt 0.77994 0.02627
vt 0.77994 0.02064
vt 0.90329 0.02064
vt 0.90329 0.02627
vt 0.77994 0.03191
vt 0.90329 0.03191
vt 0.77994 0.015
vt 0.90329 0.015
vt 0.25988 0.07375
vt 0.39487 0.0771
vt 0.3948 0.08514
vt 0.25955 0.08179
vt 0.39558 0.06093
vt 0.3957 0.05284
vt 0.42771 0.05271
vt 0.42723 0.06119
vt 0.42822 0.07752
vt 0.42785 0.08554
vt 0.22655 0.07254
vt 0.22739 0.06463
vt 0.2599 0.0657
vt 0.22653 0.08057
vt 0.22835 0.05628
vt 0.25997 0.05759
vt 0.21141 0.05494
vt 0.21254 0.04701
vt 0.22828 0.04779
vt 0.18791 0.05097
vt 0.18936 0.04299
vt 0.20764 0.07865
vt 0.20868 0.07083
vt 0.18344 0.07483
vt 0.18488 0.06688
vt 0.21006 0.06296
vt 0.18641 0.05894
vt 0.02241 0.02872
vt 0.02382 0.02098
vt 0.63637 0.05932
vt 0.47117 0.08191
vt 0.47012 0.07391
vt 0.63531 0.05153
vt 0.46899 0.0659
vt 0.63427 0.04374
vt 0.01467 0.0273
vt 0.02098 0.03645
vt 0.01325 0.03503
vt 0.02522 0.01325
vt 0.39525 0.06905
vt 0.26025 0.04949
vt 0.42778 0.06958
vt 0.44347 0.05271
vt 0.4442 0.06068
vt 0.46682 0.04982
vt 0.46788 0.05786
vt 0.44616 0.07668
vt 0.44681 0.08454
vt 0.44517 0.06876
vt 0.64311 0.05049
vt 0.64207 0.0427
vt 0.63323 0.03594
vt 0.63221 0.02815
vt 0.10321 0.34514
vt 0.10321 0.57192
vt 0.09718 0.57192
vt 0.09718 0.34514
vt 0.09116 0.34514
vt 0.09116 0.57192
vt 0.08513 0.57192
vt 0.08513 0.34514
vt 0.10923 0.34514
vt 0.10923 0.57192
vt 0.01954 0.04418
vt 0.1982 0.96148
vt 0.1982 0.95584
vt 0.32155 0.95584
vt 0.32155 0.96148
vt 0.1982 0.96711
vt 0.32155 0.96711
vt 0.1982 0.9502
vt 0.32155 0.9502
vt 0.51485 0.96639
vt 0.51485 0.96075
vt 0.6382 0.96075
vt 0.6382 0.96639
vt 0.51485 0.97202
vt 0.6382 0.97202
vt 0.51485 0.95511
vt 0.6382 0.95511
vt 0.39212 0.76511
vt 0.39212 0.75947
vt 0.51547 0.75947
vt 0.51547 0.76511
vt 0.39212 0.77075
vt 0.51547 0.77075
vt 0.39212 0.75384
vt 0.51547 0.75384
vt 0.35775 0.96148
vt 0.35775 0.95584
vt 0.4811 0.95584
vt 0.4811 0.96148
vt 0.35775 0.96711
vt 0.4811 0.96711
vt 0.35775 0.9502
vt 0.4811 0.9502
vt 0.1982 0.91729
vt 0.1982 0.91166
vt 0.32155 0.91166
vt 0.32155 0.91729
vt 0.1982 0.92293
vt 0.32155 0.92293
vt 0.1982 0.90602
vt 0.32155 0.90602
vt 0.16937 0.9838
vt 0.12961 0.9866
vt 0.12667 0.96571
vt 0.16025 0.96863
vt 0.91154 0.44824
vt 0.93029 0.45229
vt 0.9285 0.49338
vt 0.91262 0.48436
vt 0.05312 0.98675
vt 0.05443 0.96514
vt 0.91246 0.37665
vt 0.93275 0.37419
vt 0.0555 0.90087
vt 0.02106 0.89984
vt 0.0164 0.88313
vt 0.05475 0.87919
vt 0.91438 0.34218
vt 0.93062 0.33241
vt 0.84741 0.44832
vt 0.84758 0.37565
vt 0.83143 0.33535
vt 0.84875 0.33838
vt 0.82763 0.37439
vt 0.84679 0.48276
vt 0.01727 0.96482
vt 0.83085 0.49295
vt 0.82763 0.45134
vt 0.12855 0.90222
vt 0.01403 0.98229
vt 0.16572 0.90357
vt 0.13041 0.88085
vt 0.16937 0.8862
vt 0.69747 0.68974
vt 0.68115 0.68974
vt 0.68115 0.22971
vt 0.69747 0.22971
vt 0.03559 0.07876
vt 0.04136 0.07876
vt 0.04136 0.53879
vt 0.03559 0.53879
vt 0.65905 0.22971
vt 0.67538 0.22971
vt 0.67538 0.68974
vt 0.65905 0.68974
vt 0.70324 0.22971
vt 0.70324 0.68974
vt 0.01927 0.53879
vt 0.01927 0.07876
vt 0.05768 0.07876
vt 0.05768 0.53879
vt 0.01349 0.53879
vt 0.01349 0.07876
usemtl mat0
f 1/1/1 2/2/2 3/3/3
f 4/4/4 5/5/5 6/6/6
f 7/7/7 8/8/8 9/9/9
f 7/7/7 9/9/9 10/10/10
f 11/11/11 12/12/12 13/13/13
f 14/14/14 15/15/15 16/16/16
f 14/14/14 16/16/16 17/17/17
f 11/11/11 18/18/18 12/12/12
f 19/19/19 20/20/20 21/21/21
f 20/20/20 22/22/22 21/21/21
f 21/21/21 22/22/22 23/23/23
f 24/24/24 25/25/25 26/26/26
f 27/27/27 28/28/28 29/29/29
f 18/18/18 21/21/21 23/23/23
f 18/18/18 23/23/23 30/30/30
f 31/31/31 23/23/23 29/29/29
f 32/32/32 33/33/33 5/5/5
f 32/32/32 5/5/5 4/4/4
f 13/13/13 12/12/12 1/1/1
f 5/5/5 33/33/33 21/21/21
f 27/27/27 23/23/23 22/22/22
f 27/27/27 29/29/29 23/23/23
f 34/34/34 35/35/35 36/36/36
f 37/37/37 38/38/38 39/39/39
f 40/40/40 30/30/30 41/41/41
f 40/40/40 41/41/41 42/42/42
f 30/30/30 23/23/23 31/31/31
f 30/30/30 31/31/31 43/43/43
f 6/6/6 11/11/11 13/13/13
f 2/2/2 44/44/44 3/3/3
f 1/1/1 12/12/12 2/2/2
f 6/6/6 5/5/5 11/11/11
f 33/33/33 19/19/19 21/21/21
f 25/25/25 45/45/45 46/46/46
f 25/25/25 46/46/46 26/26/26
f 11/11/11 5/5/5 18/18/18
f 2/2/2 12/12/12 44/44/44
f 12/12/12 18/18/18 44/44/44
f 44/44/44 18/18/18 15/15/15
f 47/47/47 48/48/9 49/49/48
f 47/47/47 49/49/48 50/50/46
f 15/15/15 18/18/18 51/51/49
f 52/52/50 53/53/51 54/54/52
f 52/52/50 54/54/52 55/55/47
f 56/56/53 40/40/40 57/57/54
f 42/42/42 58/58/55 40/40/40
f 59/59/56 60/60/57 8/8/8
f 59/59/56 8/8/8 61/61/58
f 58/58/55 57/57/54 40/40/40
f 41/41/41 30/30/30 43/43/43
f 58/58/55 62/62/59 57/57/54
f 63/63/54 64/64/59 65/65/60
f 66/66/61 14/14/14 17/17/17
f 67/67/60 58/58/55 42/42/42
f 16/16/16 35/35/35 17/17/17
f 66/66/61 17/17/17 36/36/36
f 36/36/36 17/17/17 34/34/34
f 34/34/34 17/17/17 35/35/35
f 21/21/21 18/18/18 5/5/5
f 55/55/47 68/68/62 52/52/50
f 46/46/46 45/45/45 68/68/62
f 8/8/8 60/60/57 69/69/63
f 8/8/8 69/69/63 70/70/48
f 71/71/64 72/72/60 10/10/10
f 71/71/64 10/10/10 9/9/9
f 73/73/48 74/74/65 24/24/24
f 75/75/38 36/36/36 35/35/35
f 75/75/38 35/35/35 76/76/39
f 24/24/24 74/74/65 77/77/66
f 60/60/57 78/78/67 79/79/68
f 8/8/8 7/7/7 61/61/58
f 60/60/57 59/59/56 78/78/67
f 80/80/69 81/81/70 82/82/71
f 83/83/72 84/84/72 85/85/72
f 86/86/73 87/87/64 88/88/73
f 65/65/60 89/89/74 63/63/54
f 39/39/39 90/90/75 91/91/76
f 92/92/77 93/93/77 94/94/78
f 92/92/77 94/94/78 95/95/79
f 94/94/78 96/96/80 97/97/81
f 94/94/78 97/97/81 95/95/79
f 98/98/82 99/99/83 100/100/84
f 98/98/82 100/100/84 101/101/85
f 99/99/83 98/98/82 102/102/86
f 99/99/83 102/102/86 103/103/87
f 96/96/80 104/104/88 105/105/89
f 96/96/80 105/105/89 97/97/81
f 67/67/60 62/62/59 58/58/55
f 40/40/40 56/56/53 106/106/90
f 40/40/40 106/106/90 51/51/49
f 85/85/72 84/84/72 107/107/72
f 85/85/72 107/107/72 108/108/72
f 55/55/47 46/46/46 68/68/62
f 24/24/24 109/109/91 25/25/25
f 73/73/48 110/110/63 74/74/65
f 44/44/44 15/15/15 14/14/14
f 44/44/44 14/14/14 3/3/3
f 18/18/18 30/30/30 40/40/40
f 18/18/18 40/40/40 51/51/49
f 77/77/66 111/111/92 24/24/24
f 16/16/16 106/106/90 76/76/39
f 16/16/16 76/76/39 35/35/35
f 15/15/15 51/51/49 106/106/90
f 15/15/15 106/106/90 16/16/16
f 112/112/69 113/113/73 88/88/73
f 112/112/69 88/88/73 87/87/64
f 48/48/9 114/114/8 49/49/48
f 49/49/48 115/115/24 116/116/26
f 116/116/26 50/50/46 49/49/48
f 117/117/93 90/90/75 118/118/90
f 117/117/93 118/118/90 119/119/53
f 47/47/47 120/120/52 48/48/9
f 107/107/72 121/121/72 122/122/72
f 122/122/72 123/123/72 108/108/72
f 75/75/38 124/124/37 66/66/61
f 75/75/38 66/66/61 36/36/36
f 85/85/72 125/125/72 83/83/72
f 83/83/72 126/126/72 84/84/72
f 107/107/72 122/122/72 108/108/72
f 112/112/69 127/127/73 113/113/73
f 127/127/73 128/128/73 113/113/73
f 129/129/94 101/101/85 100/100/84
f 129/129/94 100/100/84 130/130/94
f 88/88/73 131/131/73 86/86/73
f 89/89/74 117/117/93 119/119/53
f 89/89/74 119/119/53 63/63/54
f 112/112/69 87/87/64 48/48/9
f 112/112/69 48/48/9 120/120/52
f 28/28/28 132/132/95 31/31/31
f 28/28/28 31/31/31 29/29/29
f 65/65/60 133/133/64 89/89/74
f 91/91/76 134/134/96 37/37/37
f 39/39/39 118/118/90 90/90/75
f 91/91/76 37/37/37 39/39/39
f 81/81/70 80/80/69 54/54/52
f 81/81/70 54/54/52 53/53/51
f 103/103/87 102/102/86 105/105/89
f 103/103/87 105/105/89 104/104/88
f 135/135/97 24/24/24 111/111/92
f 135/135/97 109/109/91 24/24/24
f 136/136/98 137/137/99 138/138/100
f 136/136/98 138/138/100 139/139/101
f 140/140/102 141/141/100 142/142/103
f 140/140/102 142/142/103 143/143/104
f 144/144/105 145/145/103 138/138/100
f 144/144/105 138/138/100 137/137/99
f 136/136/98 146/146/106 147/147/107
f 136/136/98 147/147/107 148/148/108
f 149/149/109 146/146/106 136/136/98
f 149/149/109 136/136/98 139/139/101
f 147/147/107 150/150/110 151/151/111
f 147/147/107 151/151/111 148/148/108
f 152/152/112 153/153/113 154/154/109
f 152/152/112 154/154/109 150/150/110
f 153/153/113 152/152/112 155/155/114
f 153/153/113 155/155/114 156/156/115
f 157/157/113 158/158/116 146/146/106
f 157/157/113 146/146/106 149/149/109
f 158/158/116 157/157/113 159/159/115
f 158/158/116 159/159/115 160/160/117
f 158/158/116 161/161/118 147/147/107
f 158/158/116 147/147/107 146/146/106
f 161/161/118 158/158/116 160/160/117
f 161/161/118 160/160/117 162/162/119
f 162/162/119 163/163/120 164/164/121
f 162/162/119 164/164/121 155/155/114
f 161/161/118 152/152/112 150/150/110
f 161/161/118 150/150/110 147/147/107
f 162/162/119 155/155/114 152/152/112
f 162/162/119 152/152/112 161/161/118
f 165/165/122 166/166/123 167/167/124
f 165/165/122 167/167/124 168/168/125
f 168/168/125 167/167/124 169/169/126
f 168/168/125 169/169/126 170/170/127
f 171/171/121 163/163/120 172/172/128
f 171/171/121 172/172/128 173/173/129
f 155/155/114 164/164/121 174/174/129
f 155/155/114 174/174/129 156/156/115
f 151/151/111 140/140/102 175/175/130
f 151/151/111 175/175/130 148/148/108
f 176/176/101 141/141/100 140/140/102
f 176/176/101 140/140/102 151/151/111
f 137/137/99 175/175/130 177/177/131
f 137/137/99 177/177/131 144/144/105
f 143/143/104 177/177/131 175/175/130
f 143/143/104 175/175/130 140/140/102
f 178/178/132 179/179/133 143/143/104
f 178/178/132 143/143/104 142/142/103
f 178/178/132 180/180/123 181/181/134
f 178/178/132 181/181/134 179/179/133
f 182/182/135 183/183/132 145/145/103
f 182/182/135 145/145/103 144/144/105
f 182/182/135 167/167/124 166/166/123
f 182/182/135 166/166/123 183/183/132
f 184/184/136 182/182/135 144/144/105
f 184/184/136 144/144/105 177/177/131
f 184/184/136 169/169/126 167/167/124
f 184/184/136 167/167/124 182/182/135
f 179/179/133 184/184/136 177/177/131
f 179/179/133 177/177/131 143/143/104
f 181/181/134 169/169/126 184/184/136
f 181/181/134 184/184/136 179/179/133
f 160/160/117 172/172/128 163/163/120
f 160/160/117 163/163/120 162/162/119
f 185/185/122 168/168/125 170/170/127
f 185/185/122 170/170/127 186/186/137
f 170/170/127 169/169/126 181/181/134
f 170/170/127 181/181/134 187/187/137
f 181/181/134 180/180/123 188/188/122
f 181/181/134 188/188/122 187/187/137
f 148/148/108 175/175/130 137/137/99
f 148/148/108 137/137/99 136/136/98
f 189/189/138 190/190/138 191/191/72
f 189/189/138 191/191/72 192/192/72
f 193/193/139 194/194/139 195/195/73
f 193/193/139 195/195/73 196/196/73
f 189/189/138 197/197/73 198/198/73
f 189/189/138 198/198/73 190/190/138
f 159/159/115 199/199/129 172/172/128
f 159/159/115 172/172/128 160/160/117
f 150/150/110 154/154/109 176/176/101
f 150/150/110 176/176/101 151/151/111
f 193/193/139 192/192/72 191/191/72
f 193/193/139 191/191/72 194/194/139
f 200/200/139 201/201/140 202/202/140
f 200/200/139 202/202/140 203/203/139
f 204/204/141 200/200/139 203/203/139
f 204/204/141 203/203/139 205/205/141
f 201/201/140 206/206/141 207/207/141
f 201/201/140 207/207/141 202/202/140
f 208/208/139 209/209/140 210/210/140
f 208/208/139 210/210/140 211/211/139
f 212/212/141 208/208/139 211/211/139
f 212/212/141 211/211/139 213/213/141
f 209/209/140 214/214/141 215/215/141
f 209/209/140 215/215/141 210/210/140
f 216/216/139 217/217/140 218/218/140
f 216/216/139 218/218/140 219/219/139
f 220/220/141 216/216/139 219/219/139
f 220/220/141 219/219/139 221/221/141
f 217/217/140 222/222/141 223/223/141
f 217/217/140 223/223/141 218/218/140
f 224/224/139 225/225/140 226/226/140
f 224/224/139 226/226/140 227/227/139
f 228/228/141 224/224/139 227/227/139
f 228/228/141 227/227/139 229/229/141
f 225/225/140 230/230/141 231/231/141
f 225/225/140 231/231/141 226/226/140
f 232/232/139 233/233/140 234/234/140
f 232/232/139 234/234/140 235/235/139
f 236/236/141 232/232/139 235/235/139
f 236/236/141 235/235/139 237/237/141
f 233/233/140 238/238/141 239/239/141
f 233/233/140 239/239/141 234/234/140
f 240/240/98 241/241/99 242/242/100
f 240/240/98 242/242/100 243/243/101
f 244/244/102 245/245/100 246/246/103
f 244/244/102 246/246/103 247/247/104
f 248/248/105 249/249/103 242/242/100
f 248/248/105 242/242/100 241/241/99
f 240/240/98 250/250/106 251/251/107
f 240/240/98 251/251/107 252/252/108
f 253/253/109 250/250/106 240/240/98
f 253/253/109 240/240/98 243/243/101
f 251/251/107 254/254/110 255/255/111
f 251/251/107 255/255/111 252/252/108
f 256/256/112 257/257/113 258/258/109
f 256/256/112 258/258/109 254/254/110
f 257/257/113 256/256/112 259/259/142
f 257/257/113 259/259/142 260/260/143
f 261/261/113 262/262/116 250/250/106
f 261/261/113 250/250/106 253/253/109
f 262/262/116 261/261/113 263/263/143
f 262/262/116 263/263/143 264/264/144
f 262/262/116 265/265/118 251/251/107
f 262/262/116 251/251/107 250/250/106
f 265/265/118 262/262/116 264/264/144
f 265/265/118 264/264/144 266/266/145
f 266/266/145 267/267/146 268/268/147
f 266/266/145 268/268/147 259/259/142
f 265/265/118 256/256/112 254/254/110
f 265/265/118 254/254/110 251/251/107
f 266/266/145 259/259/142 256/256/112
f 266/266/145 256/256/112 265/265/118
f 269/269/148 270/270/149 271/271/150
f 269/269/148 271/271/150 272/272/151
f 272/272/151 271/271/150 273/273/152
f 272/272/151 273/273/152 274/274/153
f 275/275/147 267/267/146 276/276/154
f 275/275/147 276/276/154 277/277/155
f 259/259/142 268/268/147 278/278/155
f 259/259/142 278/278/155 260/260/143
f 255/255/111 244/244/102 279/279/130
f 255/255/111 279/279/130 252/252/108
f 280/280/101 245/245/100 244/244/102
f 280/280/101 244/244/102 255/255/111
f 241/241/99 279/279/130 281/281/131
f 241/241/99 281/281/131 248/248/105
f 247/247/104 281/281/131 279/279/130
f 247/247/104 279/279/130 244/244/102
f 282/282/132 283/283/133 247/247/104
f 282/282/132 247/247/104 246/246/103
f 282/282/132 284/284/149 285/285/156
f 282/282/132 285/285/156 283/283/133
f 286/286/135 287/287/132 249/249/103
f 286/286/135 249/249/103 248/248/105
f 286/286/135 271/271/150 270/270/149
f 286/286/135 270/270/149 287/287/132
f 288/288/136 286/286/135 248/248/105
f 288/288/136 248/248/105 281/281/131
f 288/288/136 273/273/152 271/271/150
f 288/288/136 271/271/150 286/286/135
f 283/283/133 288/288/136 281/281/131
f 283/283/133 281/281/131 247/247/104
f 285/285/156 273/273/152 288/288/136
f 285/285/156 288/288/136 283/283/133
f 264/264/144 276/276/154 267/267/146
f 264/264/144 267/267/146 266/266/145
f 289/289/148 272/272/151 274/274/153
f 289/289/148 274/274/153 290/290/157
f 274/274/153 273/273/152 285/285/156
f 274/274/153 285/285/156 291/291/157
f 285/285/156 284/284/149 292/292/148
f 285/285/156 292/292/148 291/291/157
f 252/252/108 279/279/130 241/241/99
f 252/252/108 241/241/99 240/240/98
f 293/293/138 294/294/138 295/295/72
f 293/293/138 295/295/72 296/296/72
f 297/297/139 298/298/139 299/299/73
f 297/297/139 299/299/73 300/300/73
f 293/293/138 301/301/73 302/302/73
f 293/293/138 302/302/73 294/294/138
f 263/263/143 303/303/155 276/276/154
f 263/263/143 276/276/154 264/264/144
f 254/254/110 258/258/109 280/280/101
f 254/254/110 280/280/101 255/255/111
f 297/297/139 296/296/72 295/295/72
f 297/297/139 295/295/72 298/298/139
f 304/304/139 305/305/140 306/306/140
f 304/304/139 306/306/140 307/307/139
f 308/308/141 304/304/139 307/307/139
f 308/308/141 307/307/139 309/309/141
f 305/305/140 310/310/141 311/311/141
f 305/305/140 311/311/141 306/306/140
f 312/312/139 313/313/140 314/314/140
f 312/312/139 314/314/140 315/315/139
f 316/316/141 312/312/139 315/315/139
f 316/316/141 315/315/139 317/317/141
f 313/313/140 318/318/141 319/319/141
f 313/313/140 319/319/141 314/314/140
f 320/320/139 321/321/140 322/322/140
f 320/320/139 322/322/140 323/323/139
f 324/324/141 320/320/139 323/323/139
f 324/324/141 323/323/139 325/325/141
f 321/321/140 326/326/141 327/327/141
f 321/321/140 327/327/141 322/322/140
f 328/328/139 329/329/140 330/330/140
f 328/328/139 330/330/140 331/331/139
f 332/332/141 328/328/139 331/331/139
f 332/332/141 331/331/139 333/333/141
f 329/329/140 334/334/141 335/335/141
f 329/329/140 335/335/141 330/330/140
f 336/336/139 337/337/140 338/338/140
f 336/336/139 338/338/140 339/339/139
f 340/340/141 336/336/139 339/339/139
f 340/340/141 339/339/139 341/341/141
f 337/337/140 342/342/141 343/343/141
f 337/337/140 343/343/141 338/338/140
f 344/344/158 345/345/159 346/346/160
f 344/344/158 346/346/160 347/347/161
f 348/348/162 349/349/163 350/350/164
f 348/348/162 350/350/164 351/351/165
f 345/345/159 352/352/166 353/353/167
f 345/345/159 353/353/167 346/346/160
f 354/354/168 355/355/169 349/349/163
f 354/354/168 349/349/163 348/348/162
f 356/356/170 357/357/165 358/358/164
f 356/356/170 358/358/164 359/359/163
f 354/354/168 360/360/171 361/361/172
f 354/354/168 361/361/172 355/355/169
f 354/354/168 348/348/162 362/362/173
f 354/354/168 362/362/173 363/363/174
f 364/364/158 365/365/161 363/363/174
f 364/364/158 363/363/174 366/366/159
f 348/348/162 351/351/165 367/367/175
f 348/348/162 367/367/175 362/362/173
f 357/357/165 356/356/170 353/353/167
f 357/357/165 353/353/167 368/368/175
f 369/369/176 370/370/166 362/362/173
f 369/369/176 362/362/173 367/367/175
f 370/370/166 366/366/159 363/363/174
f 370/370/166 363/363/174 362/362/173
f 356/356/170 371/371/177 346/346/160
f 356/356/170 346/346/160 353/353/167
f 372/372/176 368/368/175 353/353/167
f 372/372/176 353/353/167 352/352/166
f 371/371/177 373/373/171 347/347/161
f 371/371/177 347/347/161 346/346/160
f 360/360/171 354/354/168 363/363/174
f 360/360/171 363/363/174 365/365/161
f 371/371/177 374/374/169 375/375/172
f 371/371/177 375/375/172 373/373/171
f 356/356/170 359/359/163 374/374/169
f 356/356/170 374/374/169 371/371/177
f 376/376/178 377/377/179 378/378/179
f 376/376/178 378/378/179 379/379/178
f 380/380/180 381/381/179 382/382/179
f 380/380/180 382/382/179 383/383/180
f 384/384/181 385/385/180 386/386/180
f 384/384/181 386/386/180 387/387/181
f 376/376/178 379/379/178 388/388/181
f 376/376/178 388/388/181 389/389/181
f 390/390/181 391/391/181 380/380/180
f 390/390/181 380/380/180 383/383/180
f 392/392/178 393/393/178 382/382/179
f 392/392/178 382/382/179 381/381/179
f 390/390/181 394/394/178 395/395/178
f 390/390/181 395/395/178 391/391/181
f 378/378/179 377/377/179 386/386/180
f 378/378/179 386/386/180 385/385/180
# Vertices: 395, normals: 181, texture coordinates: 395, faces: 420

