{
  "accessors": [
    {
      "bufferView": 2,
      "componentType": 5126,
      "count": 1056,
      "max": [
        1.9084922075271606,
        1.9084922075271606,
        8.54818344116211
      ],
      "min": [
        -1.9084922075271606,
        -1.9084922075271606,
        -0.47404301166534424
      ],
      "type": "VEC3"
    },
    {
      "bufferView": 2,
      "byteOffset": 12672,
      "componentType": 5126,
      "count": 1056,
      "max": [
        1.0,
        1.0,
        0.9794600605964661
      ],
      "min": [
        -1.0,
        -1.0,
        -0.9982415437698364
      ],
      "type": "VEC3"
    },
    {
      "bufferView": 1,
      "componentType": 5126,
      "count": 1056,
      "max": [
        0.0,
        0.0
      ],
      "min": [
        0.0,
        0.0
      ],
      "type": "VEC2"
    },
    {
      "bufferView": 0,
      "componentType": 5125,
      "count": 6042,
      "type": "SCALAR"
    },
    {
      "bufferView": 2,
      "byteOffset": 25344,
      "componentType": 5126,
      "count": 1056,
      "max": [
        0.5116502642631531,
        0.5116499066352844,
        0.83880615234375
      ],
      "min": [
        -0.5116495490074158,
        -0.5116499066352844,
        -0.45862579345703125
      ],
      "type": "VEC3"
    },
    {
      "bufferView": 2,
      "byteOffset": 38016,
      "componentType": 5126,
      "count": 1056,
      "max": [
        0.9273610711097717,
        0.9273611307144165,
        0.9949933886528015
      ],
      "min": [
        -0.9273610711097717,
        -0.9273610711097717,
        0.36284828186035156
      ],
      "type": "VEC3"
    },
    {
      "bufferView": 1,
      "byteOffset": 8448,
      "componentType": 5126,
      "count": 1056,
      "max": [
        0.0,
        0.0
      ],
      "min": [
        0.0,
        0.0
      ],
      "type": "VEC2"
    },
    {
      "bufferView": 0,
      "byteOffset": 24168,
      "componentType": 5125,
      "count": 1626,
      "type": "SCALAR"
    },
    {
      "bufferView": 2,
      "byteOffset": 50688,
      "componentType": 5126,
      "count": 1056,
      "max": [
        1.9084922075271606,
        1.9084922075271606,
        8.54818344116211
      ],
      "min": [
        -1.9084922075271606,
        -1.9084922075271606,
        -0.47404301166534424
      ],
      "type": "VEC3"
    },
    {
      "bufferView": 2,
      "byteOffset": 63360,
      "componentType": 5126,
      "count": 1056,
      "max": [
        1.0,
        1.0,
        0.9794600605964661
      ],
      "min": [
        -1.0,
        -1.0,
        -0.9982415437698364
      ],
      "type": "VEC3"
    },
    {
      "bufferView": 1,
      "byteOffset": 16896,
      "componentType": 5126,
      "count": 1056,
      "max": [
        0.0,
        0.0
      ],
      "min": [
        0.0,
        0.0
      ],
      "type": "VEC2"
    },
    {
      "bufferView": 0,
      "byteOffset": 30672,
      "componentType": 5125,
      "count": 6042,
      "type": "SCALAR"
    },
    {
      "bufferView": 2,
      "byteOffset": 76032,
      "componentType": 5126,
      "count": 1056,
      "max": [
        0.5116502642631531,
        0.5116499066352844,
        0.83880615234375
      ],
      "min": [
        -0.5116495490074158,
        -0.5116499066352844,
        -0.45862579345703125
      ],
      "type": "VEC3"
    },
    {
      "bufferView": 2,
      "byteOffset": 88704,
      "componentType": 5126,
      "count": 1056,
      "max": [
        0.9273610711097717,
        0.9273611307144165,
        0.9949933886528015
      ],
      "min": [
        -0.9273610711097717,
        -0.9273610711097717,
        0.36284828186035156
      ],
      "type": "VEC3"
    },
    {
      "bufferView": 1,
      "byteOffset": 25344,
      "componentType": 5126,
      "count": 1056,
      "max": [
        0.0,
        0.0
      ],
      "min": [
        0.0,
        0.0
      ],
      "type": "VEC2"
    },
    {
      "bufferView": 0,
      "byteOffset": 54840,
      "componentType": 5125,
      "count": 1626,
      "type": "SCALAR"
    }
  ],
  "asset": {
    "extras": {
      "author": "Kroko.blend (https://sketchfab.com/jaromir.ternavskiy)",
      "license": "CC-BY-4.0 (http://creativecommons.org/licenses/by/4.0/)",
      "source": "https://sketchfab.com/3d-models/nails-25e37bf365ce44a7b1a6e64802fe4888",
      "title": "Nails"
    },
    "generator": "Sketchfab-15.22.0",
    "version": "2.0"
  },
  "bufferViews": [
    {
      "buffer": 0,
      "byteLength": 61344,
      "name": "floatBufferViews",
      "target": 34963
    },
    {
      "buffer": 0,
      "byteLength": 33792,
      "byteOffset": 61344,
      "byteStride": 8,
      "name": "floatBufferViews",
      "target": 34962
    },
    {
      "buffer": 0,
      "byteLength": 101376,
      "byteOffset": 95136,
      "byteStride": 12,
      "name": "floatBufferViews",
      "target": 34962
    }
  ],
  "buffers": [
    {
      "byteLength": 196512,
      "uri": "scene.bin"
    }
  ],
  "extensionsUsed": [
    "KHR_materials_specular"
  ],
  "images": [
    {
      "uri": "textures/Material_baseColor.jpeg"
    }
  ],
  "materials": [
    {
      "doubleSided": true,
      "extensions": {
        "KHR_materials_specular": {
          "specularColorFactor": [
            1.0,
            1.0,
            1.0
          ],
          "specularFactor": 0.7542880130682302
        }
      },
      "name": "Material",
      "pbrMetallicRoughness": {
        "baseColorTexture": {
          "index": 0
        },
        "roughnessFactor": 0.6236179005497922
      }
    },
    {
      "doubleSided": true,
      "extensions": {
        "KHR_materials_specular": {
          "specularColorFactor": [
            1.0,
            1.0,
            1.0
          ],
          "specularFactor": 0.8030500664382977
        }
      },
      "name": "Material.001",
      "pbrMetallicRoughness": {
        "baseColorTexture": {
          "index": 0
        },
        "metallicFactor": 0.7177164730406796,
        "roughnessFactor": 0.38590289037071357
      }
    }
  ],
  "meshes": [
    {
      "name": "Circle_Material_0",
      "primitives": [
        {
          "attributes": {
            "NORMAL": 1,
            "POSITION": 0,
            "TEXCOORD_0": 2
          },
          "indices": 3,
          "material": 0,
          "mode": 4
        }
      ]
    },
    {
      "name": "Circle.001_Material.001_0",
      "primitives": [
        {
          "attributes": {
            "NORMAL": 5,
            "POSITION": 4,
            "TEXCOORD_0": 6
          },
          "indices": 7,
          "material": 1,
          "mode": 4
        }
      ]
    },
    {
      "name": "Circle.002_Material_0",
      "primitives": [
        {
          "attributes": {
            "NORMAL": 9,
            "POSITION": 8,
            "TEXCOORD_0": 10
          },
          "indices": 11,
          "material": 0,
          "mode": 4
        }
      ]
    },
    {
      "name": "Circle.003_Material.001_0",
      "primitives": [
        {
          "attributes": {
            "NORMAL": 13,
            "POSITION": 12,
            "TEXCOORD_0": 14
          },
          "indices": 15,
          "material": 1,
          "mode": 4
        }
      ]
    }
  ],
  "nodes": [
    {
      "children": [
        1
      ],
      "matrix": [
        1.0,
        0.0,
        0.0,
        0.0,
        0.0,
        2.220446049250313e-16,
        -1.0,
        0.0,
        0.0,
        1.0,
        2.220446049250313e-16,
        0.0,
        0.0,
        0.0,
        0.0,
        1.0
      ],
      "name": "Sketchfab_model"
    },
    {
      "children": [
        2
      ],
      "matrix": [
        0.009999999776482582,
        0.0,
        0.0,
        0.0,
        0.0,
        0.0,
        0.009999999776482582,
        0.0,
        0.0,
        -0.009999999776482582,
        0.0,
        0.0,
        0.0,
        0.0,
        0.0,
        1.0
      ],
      "name": "0f361079b887436f97193f7be836258c.fbx"
    },
    {
      "children": [
        3,
        5,
        7,
        9
      ],
      "name": "RootNode"
    },
    {
      "children": [
        4
      ],
      "matrix": [
        -4.371138984105016e-06,
        99.99999999999973,
        -5.960463766996327e-06,
        0.0,
        1.6292068227841128e-05,
        -5.960463056453591e-06,
        -99.9999999999985,
        0.0,
        -99.99999999999858,
        -4.371139955550163e-06,
        -1.6292067961387602e-05,
        0.0,
        0.0,
        0.0,
        0.0,
        1.0
      ],
      "name": "Circle"
    },
    {
      "mesh": 0,
      "name": "Circle_Material_0"
    },
    {
      "children": [
        6
      ],
      "matrix": [
        -4.371138984105016e-06,
        99.99999999999973,
        -5.960463766996327e-06,
        0.0,
        1.6292068227841128e-05,
        -5.960463056453591e-06,
        -99.9999999999985,
        0.0,
        -99.99999999999858,
        -4.371139955550163e-06,
        -1.6292067961387602e-05,
        0.0,
        -900.680908203125,
        0.0,
        0.0,
        1.0
      ],
      "name": "Circle.001"
    },
    {
      "mesh": 1,
      "name": "Circle.001_Material.001_0"
    },
    {
      "children": [
        8
      ],
      "matrix": [
        -4.22014992951966e-06,
        96.54577213473819,
        26.05600523461261,
        0.0,
        95.21438152650786,
        7.9640311840362354,
        -29.50924868281637,
        0.0,
        -30.565038042256443,
        24.809061096535224,
        -91.92545315082108,
        0.0,
        -312.6937561035156,
        -6.231439113616943,
        413.9775390625,
        1.0
      ],
      "name": "Circle.002"
    },
    {
      "mesh": 2,
      "name": "Circle.002_Material_0"
    },
    {
      "children": [
        10
      ],
      "matrix": [
        -4.22014992951966e-06,
        96.54577213473819,
        26.05600523461261,
        0.0,
        95.21438152650786,
        7.9640311840362354,
        -29.50924868281637,
        0.0,
        -30.565038042256443,
        24.809061096535224,
        -91.92545315082108,
        0.0,
        -587.9871215820313,
        217.2190704345703,
        -413.9775390625,
        1.0
      ],
      "name": "Circle.003"
    },
    {
      "mesh": 3,
      "name": "Circle.003_Material.001_0"
    }
  ],
  "samplers": [
    {
      "magFilter": 9729,
      "minFilter": 9987,
      "wrapS": 10497,
      "wrapT": 10497
    }
  ],
  "scene": 0,
  "scenes": [
    {
      "name": "Sketchfab_Scene",
      "nodes": [
        0
      ]
    }
  ],
  "textures": [
    {
      "sampler": 0,
      "source": 0
    }
  ]
}
